<svg width="9" height="7" viewBox="0 0 9 7" fill="none" xmlns="http://www.w3.org/2000/svg">
<path d="M0.31324 1.10103L0.313746 1.10042L0.949569 0.334692C1.05561 0.20698 1.18753 0.15 1.31209 0.15C1.43657 0.15 1.5675 0.206881 1.672 0.334084L1.672 0.334086L1.6725 0.334692L4.3846 3.60091L4.5 3.73989L4.6154 3.60091L7.3275 0.334692C7.43354 0.20698 7.56546 0.15 7.69002 0.15C7.8145 0.15 7.94543 0.206881 8.04993 0.334086L8.05043 0.334692L8.68625 1.10042C8.90483 1.36366 8.90416 1.79773 8.68676 2.05676L8.68625 2.05737L4.86006 6.66531L4.86005 6.6653L4.85905 6.66653C4.75607 6.79326 4.6261 6.85 4.50211 6.85C4.37795 6.85 4.24602 6.79306 4.13994 6.66531L0.313746 2.05737C0.0951697 1.79414 0.0958352 1.36007 0.31324 1.10103Z" fill="#942929" stroke="black" stroke-width="0.3"/>
</svg>
