<svg width="9" height="7" viewBox="0 0 9 7" fill="none" xmlns="http://www.w3.org/2000/svg">
<path d="M0.31324 5.89897L0.313746 5.89958L0.949569 6.66531C1.05561 6.79302 1.18753 6.85 1.31209 6.85C1.43657 6.85 1.5675 6.79312 1.672 6.66592L1.672 6.66591L1.6725 6.66531L4.3846 3.39909L4.5 3.26011L4.6154 3.39909L7.3275 6.66531C7.43354 6.79302 7.56546 6.85 7.69002 6.85C7.8145 6.85 7.94543 6.79312 8.04993 6.66591L8.05043 6.66531L8.68625 5.89958C8.90483 5.63634 8.90416 5.20227 8.68676 4.94324L8.68625 4.94263L4.86006 0.334692L4.86005 0.334697L4.85905 0.333469C4.75607 0.206743 4.6261 0.15 4.50211 0.15C4.37795 0.15 4.24602 0.206943 4.13994 0.334692L0.313746 4.94263C0.0951697 5.20586 0.0958352 5.63993 0.31324 5.89897Z" fill="#942929" stroke="black" stroke-width="0.3"/>
</svg>
