<svg xmlns="http://www.w3.org/2000/svg" width="26" height="23"><path d="M 0.914 2.879 L 24.128 2.879 C 24.621 2.879 25.021 2.68 25.021 2.435 L 25.021 1.323 C 25.021 1.205 24.927 1.092 24.759 1.009 C 24.591 0.926 24.364 0.879 24.128 0.879 L 0.914 0.879 C 0.421 0.879 0.022 1.078 0.021 1.323 L 0.021 2.435 C 0.021 2.68 0.421 2.879 0.913 2.879 Z M 0.914 11.863 L 24.128 11.863 C 24.621 11.863 25.021 11.664 25.021 11.419 L 25.021 10.308 C 25.021 10.19 24.927 10.077 24.759 9.993 C 24.592 9.91 24.364 9.863 24.128 9.863 L 0.914 9.863 C 0.421 9.863 0.022 10.062 0.021 10.307 L 0.021 11.419 C 0.021 11.665 0.421 11.863 0.913 11.863 Z M 0.914 20.806 L 24.128 20.806 C 24.621 20.806 25.021 20.607 25.021 20.362 L 25.021 19.25 C 25.021 19.132 24.927 19.019 24.759 18.936 C 24.591 18.852 24.364 18.806 24.128 18.806 L 0.914 18.806 C 0.421 18.806 0.022 19.005 0.021 19.25 L 0.021 20.362 C 0.021 20.607 0.421 20.805 0.913 20.805 Z" fill="hsl(0, 0%, 100%)"></path></svg>