<svg width="23" height="23" viewBox="0 0 23 23" fill="none" xmlns="http://www.w3.org/2000/svg">
<path d="M14.551 0.575132L14.4531 0.487382C14.2368 0.316558 13.9652 0.231125 13.69 0.247301C13.4148 0.263477 13.1551 0.380136 12.9603 0.575132L12.8725 0.673007C12.7018 0.889197 12.6164 1.16057 12.6325 1.43558C12.6487 1.71059 12.7653 1.97008 12.9603 2.16476L14.4216 3.62388H8.12388L7.85388 3.62838C5.81431 3.6978 3.88141 4.5566 2.46283 6.02366C1.04424 7.49073 0.250861 9.45138 0.25 11.4921C0.25 13.1178 0.74275 14.6286 1.58763 15.8785C1.76113 16.1211 2.02388 16.2848 2.31809 16.3336C2.6123 16.3825 2.91386 16.3124 3.15644 16.1389C3.39901 15.9654 3.56273 15.7027 3.61157 15.4085C3.66041 15.1143 3.59038 14.8127 3.41688 14.5701L3.265 14.3249C2.76705 13.4704 2.50332 12.4997 2.50045 11.5107C2.49758 10.5217 2.75565 9.5495 3.24863 8.69215C3.74162 7.8348 4.45205 7.12267 5.30823 6.62765C6.1644 6.13263 7.13602 5.87224 8.125 5.87276H14.4194L12.9603 7.33188L12.8725 7.42976C12.6898 7.6544 12.6009 7.94088 12.6243 8.22948C12.6476 8.51808 12.7814 8.78654 12.9979 8.97888C13.2143 9.17123 13.4966 9.27262 13.786 9.26193C14.0753 9.25124 14.3494 9.1293 14.551 8.92151L17.9328 5.54313L18.0194 5.44526C18.1901 5.22907 18.2755 4.95769 18.2593 4.68269C18.2432 4.40768 18.1265 4.14819 17.9316 3.95351L14.551 0.575132V0.575132ZM21.3854 7.06751C21.2413 6.88262 21.043 6.7474 20.8183 6.68078C20.5936 6.61416 20.3536 6.61947 20.1321 6.69597C19.9105 6.77247 19.7184 6.91633 19.5827 7.10741C19.4469 7.29849 19.3743 7.52724 19.375 7.76163C19.375 7.99676 19.447 8.21388 19.5685 8.39276C20.1279 9.2401 20.4473 10.2231 20.4929 11.2374C20.5385 12.2517 20.3086 13.2595 19.8275 14.1536C19.3464 15.0477 18.6321 15.7948 17.7605 16.3156C16.8889 16.8364 15.8926 17.1115 14.8773 17.1115H8.59075L10.0465 15.6603L10.1399 15.5523C10.2931 15.3538 10.3756 15.1099 10.3744 14.8592C10.3732 14.6085 10.2883 14.3654 10.1331 14.1685L10.0465 14.0695L9.93963 13.975C9.74093 13.8214 9.49659 13.7387 9.24546 13.7399C8.99433 13.7411 8.75082 13.8262 8.55363 13.9818L8.45463 14.0695L5.074 17.4479L4.98063 17.5548C4.82714 17.7533 4.74443 17.9974 4.74565 18.2484C4.74687 18.4993 4.83196 18.7426 4.98738 18.9396L5.074 19.0375L8.45463 22.4159L8.5615 22.5104C8.7787 22.6781 9.04974 22.7607 9.32359 22.7426C9.59744 22.7244 9.85521 22.6068 10.0484 22.4118C10.2415 22.2169 10.3568 21.958 10.3724 21.684C10.388 21.41 10.3029 21.1398 10.1331 20.9241L10.0465 20.8263L8.5795 19.3604H14.875L15.145 19.357C16.5521 19.3087 17.9204 18.8838 19.1075 18.1268C20.2945 17.3697 21.2568 16.3081 21.894 15.0527C22.5312 13.7972 22.82 12.3938 22.7304 10.9888C22.6407 9.58371 22.1759 8.22842 21.3843 7.06413V7.06751H21.3854Z" fill="white"/>
</svg>
