<svg width="59" height="36" viewBox="0 0 59 36" fill="none" xmlns="http://www.w3.org/2000/svg">
<path d="M47.5 1C47.7761 1 48 0.776142 48 0.5C48 0.223858 47.7761 0 47.5 0C47.2239 0 47 0.223858 47 0.5C47 0.776142 47.2239 1 47.5 1Z" fill="white"/>
<path d="M54.9591 0H49.9694C49.6371 0 49.3673 0.217952 49.3673 0.4865C49.3673 0.755047 49.6371 0.972999 49.9694 0.972999H54.9591C56.5232 0.972999 57.7959 2.00146 57.7959 3.26441V32.7356C57.7959 33.9995 56.5232 35.027 54.9591 35.027H49.3673V27.7305V19.9465V14.233C49.3673 12.8232 47.9477 11.676 46.203 11.676H39.1327H29.5H19.8673H12.797C11.0523 11.676 9.63265 12.8232 9.63265 14.233V19.9465V21.8925C9.63265 22.161 9.90237 22.379 10.2347 22.379C10.567 22.379 10.8367 22.161 10.8367 21.8925V20.433H19.2653V27.244H10.8367V24.8115C10.8367 24.5429 10.567 24.325 10.2347 24.325C9.90237 24.325 9.63265 24.5429 9.63265 24.8115V27.7305V35.028H4.0409C2.4768 35.028 1.20408 33.9995 1.20408 32.7366V3.26441C1.20408 2.00049 2.4768 0.972999 4.0409 0.972999H45.1531C45.4854 0.972999 45.7551 0.755047 45.7551 0.4865C45.7551 0.217952 45.4854 0 45.1531 0H4.0409C1.81214 0 0 1.46436 0 3.26441V32.7356C0 34.5366 1.81214 36 4.0409 36H10.2347H19.8673H29.5H39.1327H48.7653H54.9591C57.1879 36 59 34.5356 59 32.7356V3.26441C59 1.46436 57.1879 0 54.9591 0V0ZM20.4694 20.433H28.898V27.244H20.4694V20.433ZM30.102 20.433H38.5306V27.244H30.102V20.433ZM39.7347 20.433H48.1633V27.244H39.7347V20.433ZM48.1633 14.233V19.46H39.7347V12.649H46.203C47.2843 12.649 48.1633 13.3593 48.1633 14.233ZM38.5306 19.46H30.102V12.649H38.5306V19.46ZM28.898 19.46H20.4694V12.649H28.898V19.46ZM10.8367 19.46V14.233C10.8367 13.3603 11.7157 12.649 12.797 12.649H19.2653V19.46H10.8367ZM10.8367 28.217H19.2653V35.028H10.8367V28.217ZM20.4694 28.217H28.898V35.028H20.4694V28.217ZM30.102 28.217H38.5306V35.028H30.102V28.217ZM39.7347 35.028V28.217H48.1633V35.028H39.7347Z" fill="white"/>
<path d="M11.5 10C13.9814 10 16 8.43 16 6.5C16 4.57 13.9814 3 11.5 3C9.01857 3 7 4.57 7 6.5C7 8.43 9.01857 10 11.5 10ZM10.8571 4.051V5.5C10.8571 5.776 11.1451 6 11.5 6C11.8549 6 12.1429 5.776 12.1429 5.5V4.051C13.6086 4.283 14.7143 5.293 14.7143 6.5C14.7143 7.879 13.2717 9 11.5 9C9.72829 9 8.28571 7.879 8.28571 6.5C8.28571 5.292 9.39143 4.283 10.8571 4.051Z" fill="white"/>
<path d="M19.3179 3.99627C18.468 4.66045 18 5.54267 18 6.48317C18 7.42367 18.468 8.30589 19.3179 8.97007C20.1677 9.63425 21.2979 10 22.5 10C23.7021 10 24.831 9.63425 25.6821 8.97007C26.5333 8.30589 27 7.42267 27 6.48317C27 5.54267 26.532 4.66045 25.6821 3.99627C23.9824 2.66791 21.0176 2.66791 19.3179 3.99627V3.99627ZM24.7731 8.25967C23.5594 9.20922 21.4419 9.20922 20.2281 8.25967C19.62 7.7854 19.2857 7.15438 19.2857 6.48317C19.2857 5.81196 19.62 5.18094 20.2269 4.70667C20.835 4.2324 21.6424 3.97115 22.5 3.97115C23.1403 3.97115 23.751 4.11684 24.2717 4.38714L22.9539 5.41707C22.7031 5.613 22.7031 5.93153 22.9539 6.12747C23.0799 6.22594 23.2444 6.27417 23.409 6.27417C23.5736 6.27417 23.7381 6.22493 23.8641 6.12747L25.182 5.09754C25.5279 5.50549 25.7143 5.98277 25.7143 6.48317C25.7143 7.15438 25.38 7.7854 24.7731 8.25967V8.25967Z" fill="white"/>
<path d="M31 6.5C31 8.43 32.7943 10 35 10C37.2057 10 39 8.43 39 6.5C39 4.57 37.2057 3 35 3C32.7943 3 31 4.57 31 6.5ZM37.8571 6.5C37.8571 7.879 36.5749 9 35 9C33.4251 9 32.1429 7.879 32.1429 6.5C32.1429 5.292 33.1257 4.283 34.4286 4.051V5.5C34.4286 5.776 34.6846 6 35 6C35.3154 6 35.5714 5.776 35.5714 5.5V4.051C36.8743 4.283 37.8571 5.292 37.8571 6.5Z" fill="white"/>
<path d="M43.3179 3.99659C42.468 4.66073 42 5.54291 42 6.48336C42 7.42381 42.468 8.30598 43.3179 8.97013C44.1677 9.63427 45.2979 10 46.5 10C47.7021 10 48.8323 9.63427 49.6821 8.97013C50.532 8.30598 51 7.42381 51 6.48336C51 5.54391 50.532 4.66174 49.6821 3.99659C47.9799 2.6673 45.0163 2.66831 43.3179 3.99659ZM48.7731 8.25976C47.5594 9.20926 45.4419 9.20926 44.2281 8.25976C43.62 7.78552 43.2857 7.15453 43.2857 6.48336C43.2857 5.98299 43.4721 5.50573 43.8193 5.09881L45.1371 6.12868C45.2631 6.22715 45.4277 6.27537 45.5923 6.27537C45.7569 6.27537 45.9214 6.22614 46.0474 6.12868C46.2981 5.93275 46.2981 5.61425 46.0474 5.41832L44.7296 4.38845C45.249 4.11716 45.8597 3.97147 46.5 3.97147C47.3576 3.97147 48.165 4.23271 48.7731 4.70695C49.38 5.1812 49.7143 5.81218 49.7143 6.48336C49.7143 7.15453 49.38 7.78552 48.7731 8.25976Z" fill="white"/>
<path d="M8 13.873C8 13.392 7.608 13 7.127 13H6V11.5C6 11.224 5.776 11 5.5 11C5.224 11 5 11.224 5 11.5V13H3.873C3.392 13 3 13.392 3 13.873V15.127C3 15.608 3.392 16 3.873 16H5V20.5C5 20.776 5.224 21 5.5 21C5.776 21 6 20.776 6 20.5V16H7.127C7.608 16 8 15.608 8 15.127V13.873ZM7 15H4V14H7V15Z" fill="white"/>
<path d="M5.5 33C5.776 33 6 32.776 6 32.5V29H7.127C7.608 29 8 28.608 8 28.127V26.873C8 26.392 7.608 26 7.127 26H6V23.5C6 23.224 5.776 23 5.5 23C5.224 23 5 23.224 5 23.5V26H3.873C3.392 26 3 26.392 3 26.873V28.127C3 28.608 3.392 29 3.873 29H5V32.5C5 32.776 5.224 33 5.5 33ZM4 27H7V28H4V27Z" fill="white"/>
<path d="M53.5 13C52.122 13 51 13.8968 51 15C51 16.1032 52.122 17 53.5 17C54.878 17 56 16.1032 56 15C56 13.8968 54.878 13 53.5 13ZM53.5 16.2C52.673 16.2 52 15.6616 52 15C52 14.3384 52.673 13.8 53.5 13.8C54.327 13.8 55 14.3384 55 15C55 15.6616 54.327 16.2 53.5 16.2Z" fill="white"/>
<path d="M53.5 19C52.122 19 51 20.121 51 21.5C51 22.879 52.122 24 53.5 24C54.878 24 56 22.879 56 21.5C56 20.121 54.878 19 53.5 19ZM53.5 23C52.673 23 52 22.327 52 21.5C52 20.673 52.673 20 53.5 20C54.327 20 55 20.673 55 21.5C55 22.327 54.327 23 53.5 23Z" fill="white"/>
<path d="M53.5 26C52.122 26 51 27.121 51 28.5C51 29.879 52.122 31 53.5 31C54.878 31 56 29.879 56 28.5C56 27.121 54.878 26 53.5 26ZM53.5 30C52.673 30 52 29.327 52 28.5C52 27.673 52.673 27 53.5 27C54.327 27 55 27.673 55 28.5C55 29.327 54.327 30 53.5 30Z" fill="white"/>
</svg>
