<svg xmlns="http://www.w3.org/2000/svg" width="24" height="24"><path d="M 11 12 C 11 11.448 11.448 11 12 11 C 12.552 11 13 11.448 13 12 C 13 12.552 12.552 13 12 13 C 11.448 13 11 12.552 11 12 Z" fill="transparent" stroke-width="2" stroke="hsl(0, 0%, 100%)" stroke-linecap="round" stroke-linejoin="round" stroke-dasharray=""></path><path d="M 18 12 C 18 11.448 18.448 11 19 11 C 19.552 11 20 11.448 20 12 C 20 12.552 19.552 13 19 13 C 18.448 13 18 12.552 18 12 Z" fill="transparent" stroke-width="2" stroke="hsl(0, 0%, 100%)" stroke-linecap="round" stroke-linejoin="round" stroke-dasharray=""></path><path d="M 4 12 C 4 11.448 4.448 11 5 11 C 5.552 11 6 11.448 6 12 C 6 12.552 5.552 13 5 13 C 4.448 13 4 12.552 4 12 Z" fill="transparent" stroke-width="2" stroke="hsl(0, 0%, 100%)" stroke-linecap="round" stroke-linejoin="round" stroke-dasharray=""></path></svg>