<svg xmlns="http://www.w3.org/2000/svg" width="54" height="53"><path d="M 5.758 32.266 C 5.111 32.266 4.586 31.88 4.586 31.403 L 4.586 22.766 C 4.586 22.29 5.111 21.903 5.758 21.903 C 6.405 21.903 6.931 22.29 6.931 22.766 L 6.931 31.403 C 6.93 31.88 6.405 32.266 5.758 32.266 Z M 11.709 40.239 C 11.062 40.239 10.537 39.852 10.537 39.375 L 10.537 16.92 C 10.537 16.444 11.062 16.057 11.709 16.057 C 12.356 16.057 12.881 16.444 12.881 16.92 L 12.881 39.375 C 12.881 39.852 12.356 40.239 11.709 40.239 Z M 17.66 48.211 C 17.013 48.211 16.488 47.824 16.488 47.347 L 16.488 11.074 C 16.488 10.597 17.013 10.211 17.66 10.211 C 18.307 10.211 18.832 10.597 18.832 11.074 L 18.832 47.347 C 18.832 47.824 18.307 48.211 17.66 48.211 Z M 23.611 46.218 C 22.964 46.218 22.439 45.831 22.439 45.354 L 22.439 12.536 C 22.439 12.059 22.964 11.672 23.611 11.672 C 24.258 11.672 24.783 12.059 24.783 12.536 L 24.783 45.354 C 24.783 45.831 24.258 46.218 23.611 46.218 Z M 29.562 38.246 C 28.915 38.246 28.389 37.859 28.389 37.382 L 28.389 18.382 C 28.389 17.905 28.915 17.518 29.562 17.518 C 30.209 17.518 30.734 17.905 30.734 18.382 L 30.734 37.382 C 30.734 37.859 30.209 38.246 29.562 38.246 Z M 35.512 46.218 C 34.865 46.218 34.34 45.831 34.34 45.354 L 34.34 12.536 C 34.34 12.059 34.865 11.672 35.512 11.672 C 36.159 11.672 36.685 12.059 36.685 12.536 L 36.685 45.354 C 36.684 45.831 36.159 46.218 35.512 46.218 Z M 41.463 38.246 C 40.816 38.246 40.291 37.859 40.291 37.382 L 40.291 18.382 C 40.291 17.905 40.816 17.518 41.463 17.518 C 42.11 17.518 42.635 17.905 42.635 18.382 L 42.635 37.382 C 42.635 37.859 42.11 38.246 41.463 38.246 Z M 47.414 32.266 C 46.767 32.266 46.242 31.88 46.242 31.403 L 46.242 22.766 C 46.242 22.29 46.767 21.903 47.414 21.903 C 48.061 21.903 48.586 22.29 48.586 22.766 L 48.586 31.403 C 48.586 31.88 48.061 32.266 47.414 32.266 Z" fill="hsl(0, 0%, 97%)"></path></svg>